<?xml version="1.0" encoding="utf-8" standalone="no"?>
<!DOCTYPE svg PUBLIC "-//W3C//DTD SVG 1.1//EN"
  "http://www.w3.org/Graphics/SVG/1.1/DTD/svg11.dtd">
<svg xmlns:xlink="http://www.w3.org/1999/xlink" width="720pt" height="504pt" viewBox="0 0 720 504" xmlns="http://www.w3.org/2000/svg" version="1.1">
 <metadata>
  <rdf:RDF xmlns:dc="http://purl.org/dc/elements/1.1/" xmlns:cc="http://creativecommons.org/ns#" xmlns:rdf="http://www.w3.org/1999/02/22-rdf-syntax-ns#">
   <cc:Work>
    <dc:type rdf:resource="http://purl.org/dc/dcmitype/StillImage"/>
    <dc:date>2024-12-03T12:21:36.473381</dc:date>
    <dc:format>image/svg+xml</dc:format>
    <dc:creator>
     <cc:Agent>
      <dc:title>Matplotlib v3.7.1, https://matplotlib.org/</dc:title>
     </cc:Agent>
    </dc:creator>
   </cc:Work>
  </rdf:RDF>
 </metadata>
 <defs>
  <style type="text/css">*{stroke-linejoin: round; stroke-linecap: butt}</style>
 </defs>
 <g id="figure_1">
  <g id="patch_1">
   <path d="M 0 504 
L 720 504 
L 720 0 
L 0 0 
z
" style="fill: #ffffff"/>
  </g>
  <g id="axes_1">
   <g id="patch_2">
    <path d="M 90 448.56 
L 648 448.56 
L 648 60.48 
L 90 60.48 
z
" style="fill: #ffffff"/>
   </g>
   <g id="matplotlib.axis_1">
    <g id="xtick_1">
     <g id="line2d_1">
      <defs>
       <path id="mb74370277e" d="M 0 0 
L 0 3.5 
" style="stroke: #000000; stroke-width: 0.8"/>
      </defs>
      <g>
       <use xlink:href="#mb74370277e" x="115.363636" y="448.56" style="stroke: #000000; stroke-width: 0.8"/>
      </g>
     </g>
     <g id="text_1">
      <!-- 0 -->
      <g transform="translate(110.273636 467.7175) scale(0.16 -0.16)">
       <defs>
        <path id="DejaVuSans-30" d="M 2034 4250 
Q 1547 4250 1301 3770 
Q 1056 3291 1056 2328 
Q 1056 1369 1301 889 
Q 1547 409 2034 409 
Q 2525 409 2770 889 
Q 3016 1369 3016 2328 
Q 3016 3291 2770 3770 
Q 2525 4250 2034 4250 
z
M 2034 4750 
Q 2819 4750 3233 4129 
Q 3647 3509 3647 2328 
Q 3647 1150 3233 529 
Q 2819 -91 2034 -91 
Q 1250 -91 836 529 
Q 422 1150 422 2328 
Q 422 3509 836 4129 
Q 1250 4750 2034 4750 
z
" transform="scale(0.015625)"/>
       </defs>
       <use xlink:href="#DejaVuSans-30"/>
      </g>
     </g>
    </g>
    <g id="xtick_2">
     <g id="line2d_2">
      <g>
       <use xlink:href="#mb74370277e" x="221.045455" y="448.56" style="stroke: #000000; stroke-width: 0.8"/>
      </g>
     </g>
     <g id="text_2">
      <!-- 20 -->
      <g transform="translate(210.865455 467.7175) scale(0.16 -0.16)">
       <defs>
        <path id="DejaVuSans-32" d="M 1228 531 
L 3431 531 
L 3431 0 
L 469 0 
L 469 531 
Q 828 903 1448 1529 
Q 2069 2156 2228 2338 
Q 2531 2678 2651 2914 
Q 2772 3150 2772 3378 
Q 2772 3750 2511 3984 
Q 2250 4219 1831 4219 
Q 1534 4219 1204 4116 
Q 875 4013 500 3803 
L 500 4441 
Q 881 4594 1212 4672 
Q 1544 4750 1819 4750 
Q 2544 4750 2975 4387 
Q 3406 4025 3406 3419 
Q 3406 3131 3298 2873 
Q 3191 2616 2906 2266 
Q 2828 2175 2409 1742 
Q 1991 1309 1228 531 
z
" transform="scale(0.015625)"/>
       </defs>
       <use xlink:href="#DejaVuSans-32"/>
       <use xlink:href="#DejaVuSans-30" x="63.623047"/>
      </g>
     </g>
    </g>
    <g id="xtick_3">
     <g id="line2d_3">
      <g>
       <use xlink:href="#mb74370277e" x="326.727273" y="448.56" style="stroke: #000000; stroke-width: 0.8"/>
      </g>
     </g>
     <g id="text_3">
      <!-- 40 -->
      <g transform="translate(316.547273 467.7175) scale(0.16 -0.16)">
       <defs>
        <path id="DejaVuSans-34" d="M 2419 4116 
L 825 1625 
L 2419 1625 
L 2419 4116 
z
M 2253 4666 
L 3047 4666 
L 3047 1625 
L 3713 1625 
L 3713 1100 
L 3047 1100 
L 3047 0 
L 2419 0 
L 2419 1100 
L 313 1100 
L 313 1709 
L 2253 4666 
z
" transform="scale(0.015625)"/>
       </defs>
       <use xlink:href="#DejaVuSans-34"/>
       <use xlink:href="#DejaVuSans-30" x="63.623047"/>
      </g>
     </g>
    </g>
    <g id="xtick_4">
     <g id="line2d_4">
      <g>
       <use xlink:href="#mb74370277e" x="432.409091" y="448.56" style="stroke: #000000; stroke-width: 0.8"/>
      </g>
     </g>
     <g id="text_4">
      <!-- 60 -->
      <g transform="translate(422.229091 467.7175) scale(0.16 -0.16)">
       <defs>
        <path id="DejaVuSans-36" d="M 2113 2584 
Q 1688 2584 1439 2293 
Q 1191 2003 1191 1497 
Q 1191 994 1439 701 
Q 1688 409 2113 409 
Q 2538 409 2786 701 
Q 3034 994 3034 1497 
Q 3034 2003 2786 2293 
Q 2538 2584 2113 2584 
z
M 3366 4563 
L 3366 3988 
Q 3128 4100 2886 4159 
Q 2644 4219 2406 4219 
Q 1781 4219 1451 3797 
Q 1122 3375 1075 2522 
Q 1259 2794 1537 2939 
Q 1816 3084 2150 3084 
Q 2853 3084 3261 2657 
Q 3669 2231 3669 1497 
Q 3669 778 3244 343 
Q 2819 -91 2113 -91 
Q 1303 -91 875 529 
Q 447 1150 447 2328 
Q 447 3434 972 4092 
Q 1497 4750 2381 4750 
Q 2619 4750 2861 4703 
Q 3103 4656 3366 4563 
z
" transform="scale(0.015625)"/>
       </defs>
       <use xlink:href="#DejaVuSans-36"/>
       <use xlink:href="#DejaVuSans-30" x="63.623047"/>
      </g>
     </g>
    </g>
    <g id="xtick_5">
     <g id="line2d_5">
      <g>
       <use xlink:href="#mb74370277e" x="538.090909" y="448.56" style="stroke: #000000; stroke-width: 0.8"/>
      </g>
     </g>
     <g id="text_5">
      <!-- 80 -->
      <g transform="translate(527.910909 467.7175) scale(0.16 -0.16)">
       <defs>
        <path id="DejaVuSans-38" d="M 2034 2216 
Q 1584 2216 1326 1975 
Q 1069 1734 1069 1313 
Q 1069 891 1326 650 
Q 1584 409 2034 409 
Q 2484 409 2743 651 
Q 3003 894 3003 1313 
Q 3003 1734 2745 1975 
Q 2488 2216 2034 2216 
z
M 1403 2484 
Q 997 2584 770 2862 
Q 544 3141 544 3541 
Q 544 4100 942 4425 
Q 1341 4750 2034 4750 
Q 2731 4750 3128 4425 
Q 3525 4100 3525 3541 
Q 3525 3141 3298 2862 
Q 3072 2584 2669 2484 
Q 3125 2378 3379 2068 
Q 3634 1759 3634 1313 
Q 3634 634 3220 271 
Q 2806 -91 2034 -91 
Q 1263 -91 848 271 
Q 434 634 434 1313 
Q 434 1759 690 2068 
Q 947 2378 1403 2484 
z
M 1172 3481 
Q 1172 3119 1398 2916 
Q 1625 2713 2034 2713 
Q 2441 2713 2670 2916 
Q 2900 3119 2900 3481 
Q 2900 3844 2670 4047 
Q 2441 4250 2034 4250 
Q 1625 4250 1398 4047 
Q 1172 3844 1172 3481 
z
" transform="scale(0.015625)"/>
       </defs>
       <use xlink:href="#DejaVuSans-38"/>
       <use xlink:href="#DejaVuSans-30" x="63.623047"/>
      </g>
     </g>
    </g>
    <g id="xtick_6">
     <g id="line2d_6">
      <g>
       <use xlink:href="#mb74370277e" x="643.772727" y="448.56" style="stroke: #000000; stroke-width: 0.8"/>
      </g>
     </g>
     <g id="text_6">
      <!-- 100 -->
      <g transform="translate(628.502727 467.7175) scale(0.16 -0.16)">
       <defs>
        <path id="DejaVuSans-31" d="M 794 531 
L 1825 531 
L 1825 4091 
L 703 3866 
L 703 4441 
L 1819 4666 
L 2450 4666 
L 2450 531 
L 3481 531 
L 3481 0 
L 794 0 
L 794 531 
z
" transform="scale(0.015625)"/>
       </defs>
       <use xlink:href="#DejaVuSans-31"/>
       <use xlink:href="#DejaVuSans-30" x="63.623047"/>
       <use xlink:href="#DejaVuSans-30" x="127.246094"/>
      </g>
     </g>
    </g>
    <g id="text_7">
     <!-- Epochs -->
     <g transform="translate(340.335 487.2025) scale(0.16 -0.16)">
      <defs>
       <path id="DejaVuSans-45" d="M 628 4666 
L 3578 4666 
L 3578 4134 
L 1259 4134 
L 1259 2753 
L 3481 2753 
L 3481 2222 
L 1259 2222 
L 1259 531 
L 3634 531 
L 3634 0 
L 628 0 
L 628 4666 
z
" transform="scale(0.015625)"/>
       <path id="DejaVuSans-70" d="M 1159 525 
L 1159 -1331 
L 581 -1331 
L 581 3500 
L 1159 3500 
L 1159 2969 
Q 1341 3281 1617 3432 
Q 1894 3584 2278 3584 
Q 2916 3584 3314 3078 
Q 3713 2572 3713 1747 
Q 3713 922 3314 415 
Q 2916 -91 2278 -91 
Q 1894 -91 1617 61 
Q 1341 213 1159 525 
z
M 3116 1747 
Q 3116 2381 2855 2742 
Q 2594 3103 2138 3103 
Q 1681 3103 1420 2742 
Q 1159 2381 1159 1747 
Q 1159 1113 1420 752 
Q 1681 391 2138 391 
Q 2594 391 2855 752 
Q 3116 1113 3116 1747 
z
" transform="scale(0.015625)"/>
       <path id="DejaVuSans-6f" d="M 1959 3097 
Q 1497 3097 1228 2736 
Q 959 2375 959 1747 
Q 959 1119 1226 758 
Q 1494 397 1959 397 
Q 2419 397 2687 759 
Q 2956 1122 2956 1747 
Q 2956 2369 2687 2733 
Q 2419 3097 1959 3097 
z
M 1959 3584 
Q 2709 3584 3137 3096 
Q 3566 2609 3566 1747 
Q 3566 888 3137 398 
Q 2709 -91 1959 -91 
Q 1206 -91 779 398 
Q 353 888 353 1747 
Q 353 2609 779 3096 
Q 1206 3584 1959 3584 
z
" transform="scale(0.015625)"/>
       <path id="DejaVuSans-63" d="M 3122 3366 
L 3122 2828 
Q 2878 2963 2633 3030 
Q 2388 3097 2138 3097 
Q 1578 3097 1268 2742 
Q 959 2388 959 1747 
Q 959 1106 1268 751 
Q 1578 397 2138 397 
Q 2388 397 2633 464 
Q 2878 531 3122 666 
L 3122 134 
Q 2881 22 2623 -34 
Q 2366 -91 2075 -91 
Q 1284 -91 818 406 
Q 353 903 353 1747 
Q 353 2603 823 3093 
Q 1294 3584 2113 3584 
Q 2378 3584 2631 3529 
Q 2884 3475 3122 3366 
z
" transform="scale(0.015625)"/>
       <path id="DejaVuSans-68" d="M 3513 2113 
L 3513 0 
L 2938 0 
L 2938 2094 
Q 2938 2591 2744 2837 
Q 2550 3084 2163 3084 
Q 1697 3084 1428 2787 
Q 1159 2491 1159 1978 
L 1159 0 
L 581 0 
L 581 4863 
L 1159 4863 
L 1159 2956 
Q 1366 3272 1645 3428 
Q 1925 3584 2291 3584 
Q 2894 3584 3203 3211 
Q 3513 2838 3513 2113 
z
" transform="scale(0.015625)"/>
       <path id="DejaVuSans-73" d="M 2834 3397 
L 2834 2853 
Q 2591 2978 2328 3040 
Q 2066 3103 1784 3103 
Q 1356 3103 1142 2972 
Q 928 2841 928 2578 
Q 928 2378 1081 2264 
Q 1234 2150 1697 2047 
L 1894 2003 
Q 2506 1872 2764 1633 
Q 3022 1394 3022 966 
Q 3022 478 2636 193 
Q 2250 -91 1575 -91 
Q 1294 -91 989 -36 
Q 684 19 347 128 
L 347 722 
Q 666 556 975 473 
Q 1284 391 1588 391 
Q 1994 391 2212 530 
Q 2431 669 2431 922 
Q 2431 1156 2273 1281 
Q 2116 1406 1581 1522 
L 1381 1569 
Q 847 1681 609 1914 
Q 372 2147 372 2553 
Q 372 3047 722 3315 
Q 1072 3584 1716 3584 
Q 2034 3584 2315 3537 
Q 2597 3491 2834 3397 
z
" transform="scale(0.015625)"/>
      </defs>
      <use xlink:href="#DejaVuSans-45"/>
      <use xlink:href="#DejaVuSans-70" x="63.183594"/>
      <use xlink:href="#DejaVuSans-6f" x="126.660156"/>
      <use xlink:href="#DejaVuSans-63" x="187.841797"/>
      <use xlink:href="#DejaVuSans-68" x="242.822266"/>
      <use xlink:href="#DejaVuSans-73" x="306.201172"/>
     </g>
    </g>
   </g>
   <g id="matplotlib.axis_2">
    <g id="ytick_1">
     <g id="line2d_7">
      <defs>
       <path id="m11b5eaee7b" d="M 0 0 
L -3.5 0 
" style="stroke: #000000; stroke-width: 0.8"/>
      </defs>
      <g>
       <use xlink:href="#m11b5eaee7b" x="90" y="433.351264" style="stroke: #000000; stroke-width: 0.8"/>
      </g>
     </g>
     <g id="text_8">
      <!-- 0.025 -->
      <g transform="translate(37.195 439.430014) scale(0.16 -0.16)">
       <defs>
        <path id="DejaVuSans-2e" d="M 684 794 
L 1344 794 
L 1344 0 
L 684 0 
L 684 794 
z
" transform="scale(0.015625)"/>
        <path id="DejaVuSans-35" d="M 691 4666 
L 3169 4666 
L 3169 4134 
L 1269 4134 
L 1269 2991 
Q 1406 3038 1543 3061 
Q 1681 3084 1819 3084 
Q 2600 3084 3056 2656 
Q 3513 2228 3513 1497 
Q 3513 744 3044 326 
Q 2575 -91 1722 -91 
Q 1428 -91 1123 -41 
Q 819 9 494 109 
L 494 744 
Q 775 591 1075 516 
Q 1375 441 1709 441 
Q 2250 441 2565 725 
Q 2881 1009 2881 1497 
Q 2881 1984 2565 2268 
Q 2250 2553 1709 2553 
Q 1456 2553 1204 2497 
Q 953 2441 691 2322 
L 691 4666 
z
" transform="scale(0.015625)"/>
       </defs>
       <use xlink:href="#DejaVuSans-30"/>
       <use xlink:href="#DejaVuSans-2e" x="63.623047"/>
       <use xlink:href="#DejaVuSans-30" x="95.410156"/>
       <use xlink:href="#DejaVuSans-32" x="159.033203"/>
       <use xlink:href="#DejaVuSans-35" x="222.65625"/>
      </g>
     </g>
    </g>
    <g id="ytick_2">
     <g id="line2d_8">
      <g>
       <use xlink:href="#m11b5eaee7b" x="90" y="381.674882" style="stroke: #000000; stroke-width: 0.8"/>
      </g>
     </g>
     <g id="text_9">
      <!-- 0.030 -->
      <g transform="translate(37.195 387.753632) scale(0.16 -0.16)">
       <defs>
        <path id="DejaVuSans-33" d="M 2597 2516 
Q 3050 2419 3304 2112 
Q 3559 1806 3559 1356 
Q 3559 666 3084 287 
Q 2609 -91 1734 -91 
Q 1441 -91 1130 -33 
Q 819 25 488 141 
L 488 750 
Q 750 597 1062 519 
Q 1375 441 1716 441 
Q 2309 441 2620 675 
Q 2931 909 2931 1356 
Q 2931 1769 2642 2001 
Q 2353 2234 1838 2234 
L 1294 2234 
L 1294 2753 
L 1863 2753 
Q 2328 2753 2575 2939 
Q 2822 3125 2822 3475 
Q 2822 3834 2567 4026 
Q 2313 4219 1838 4219 
Q 1578 4219 1281 4162 
Q 984 4106 628 3988 
L 628 4550 
Q 988 4650 1302 4700 
Q 1616 4750 1894 4750 
Q 2613 4750 3031 4423 
Q 3450 4097 3450 3541 
Q 3450 3153 3228 2886 
Q 3006 2619 2597 2516 
z
" transform="scale(0.015625)"/>
       </defs>
       <use xlink:href="#DejaVuSans-30"/>
       <use xlink:href="#DejaVuSans-2e" x="63.623047"/>
       <use xlink:href="#DejaVuSans-30" x="95.410156"/>
       <use xlink:href="#DejaVuSans-33" x="159.033203"/>
       <use xlink:href="#DejaVuSans-30" x="222.65625"/>
      </g>
     </g>
    </g>
    <g id="ytick_3">
     <g id="line2d_9">
      <g>
       <use xlink:href="#m11b5eaee7b" x="90" y="329.998501" style="stroke: #000000; stroke-width: 0.8"/>
      </g>
     </g>
     <g id="text_10">
      <!-- 0.035 -->
      <g transform="translate(37.195 336.077251) scale(0.16 -0.16)">
       <use xlink:href="#DejaVuSans-30"/>
       <use xlink:href="#DejaVuSans-2e" x="63.623047"/>
       <use xlink:href="#DejaVuSans-30" x="95.410156"/>
       <use xlink:href="#DejaVuSans-33" x="159.033203"/>
       <use xlink:href="#DejaVuSans-35" x="222.65625"/>
      </g>
     </g>
    </g>
    <g id="ytick_4">
     <g id="line2d_10">
      <g>
       <use xlink:href="#m11b5eaee7b" x="90" y="278.322119" style="stroke: #000000; stroke-width: 0.8"/>
      </g>
     </g>
     <g id="text_11">
      <!-- 0.040 -->
      <g transform="translate(37.195 284.400869) scale(0.16 -0.16)">
       <use xlink:href="#DejaVuSans-30"/>
       <use xlink:href="#DejaVuSans-2e" x="63.623047"/>
       <use xlink:href="#DejaVuSans-30" x="95.410156"/>
       <use xlink:href="#DejaVuSans-34" x="159.033203"/>
       <use xlink:href="#DejaVuSans-30" x="222.65625"/>
      </g>
     </g>
    </g>
    <g id="ytick_5">
     <g id="line2d_11">
      <g>
       <use xlink:href="#m11b5eaee7b" x="90" y="226.645737" style="stroke: #000000; stroke-width: 0.8"/>
      </g>
     </g>
     <g id="text_12">
      <!-- 0.045 -->
      <g transform="translate(37.195 232.724487) scale(0.16 -0.16)">
       <use xlink:href="#DejaVuSans-30"/>
       <use xlink:href="#DejaVuSans-2e" x="63.623047"/>
       <use xlink:href="#DejaVuSans-30" x="95.410156"/>
       <use xlink:href="#DejaVuSans-34" x="159.033203"/>
       <use xlink:href="#DejaVuSans-35" x="222.65625"/>
      </g>
     </g>
    </g>
    <g id="ytick_6">
     <g id="line2d_12">
      <g>
       <use xlink:href="#m11b5eaee7b" x="90" y="174.969355" style="stroke: #000000; stroke-width: 0.8"/>
      </g>
     </g>
     <g id="text_13">
      <!-- 0.050 -->
      <g transform="translate(37.195 181.048105) scale(0.16 -0.16)">
       <use xlink:href="#DejaVuSans-30"/>
       <use xlink:href="#DejaVuSans-2e" x="63.623047"/>
       <use xlink:href="#DejaVuSans-30" x="95.410156"/>
       <use xlink:href="#DejaVuSans-35" x="159.033203"/>
       <use xlink:href="#DejaVuSans-30" x="222.65625"/>
      </g>
     </g>
    </g>
    <g id="ytick_7">
     <g id="line2d_13">
      <g>
       <use xlink:href="#m11b5eaee7b" x="90" y="123.292973" style="stroke: #000000; stroke-width: 0.8"/>
      </g>
     </g>
     <g id="text_14">
      <!-- 0.055 -->
      <g transform="translate(37.195 129.371723) scale(0.16 -0.16)">
       <use xlink:href="#DejaVuSans-30"/>
       <use xlink:href="#DejaVuSans-2e" x="63.623047"/>
       <use xlink:href="#DejaVuSans-30" x="95.410156"/>
       <use xlink:href="#DejaVuSans-35" x="159.033203"/>
       <use xlink:href="#DejaVuSans-35" x="222.65625"/>
      </g>
     </g>
    </g>
    <g id="ytick_8">
     <g id="line2d_14">
      <g>
       <use xlink:href="#m11b5eaee7b" x="90" y="71.616591" style="stroke: #000000; stroke-width: 0.8"/>
      </g>
     </g>
     <g id="text_15">
      <!-- 0.060 -->
      <g transform="translate(37.195 77.695341) scale(0.16 -0.16)">
       <use xlink:href="#DejaVuSans-30"/>
       <use xlink:href="#DejaVuSans-2e" x="63.623047"/>
       <use xlink:href="#DejaVuSans-30" x="95.410156"/>
       <use xlink:href="#DejaVuSans-36" x="159.033203"/>
       <use xlink:href="#DejaVuSans-30" x="222.65625"/>
      </g>
     </g>
    </g>
    <g id="text_16">
     <!-- MSE Loss -->
     <g transform="translate(29.8675 291.64625) rotate(-90) scale(0.16 -0.16)">
      <defs>
       <path id="DejaVuSans-4d" d="M 628 4666 
L 1569 4666 
L 2759 1491 
L 3956 4666 
L 4897 4666 
L 4897 0 
L 4281 0 
L 4281 4097 
L 3078 897 
L 2444 897 
L 1241 4097 
L 1241 0 
L 628 0 
L 628 4666 
z
" transform="scale(0.015625)"/>
       <path id="DejaVuSans-53" d="M 3425 4513 
L 3425 3897 
Q 3066 4069 2747 4153 
Q 2428 4238 2131 4238 
Q 1616 4238 1336 4038 
Q 1056 3838 1056 3469 
Q 1056 3159 1242 3001 
Q 1428 2844 1947 2747 
L 2328 2669 
Q 3034 2534 3370 2195 
Q 3706 1856 3706 1288 
Q 3706 609 3251 259 
Q 2797 -91 1919 -91 
Q 1588 -91 1214 -16 
Q 841 59 441 206 
L 441 856 
Q 825 641 1194 531 
Q 1563 422 1919 422 
Q 2459 422 2753 634 
Q 3047 847 3047 1241 
Q 3047 1584 2836 1778 
Q 2625 1972 2144 2069 
L 1759 2144 
Q 1053 2284 737 2584 
Q 422 2884 422 3419 
Q 422 4038 858 4394 
Q 1294 4750 2059 4750 
Q 2388 4750 2728 4690 
Q 3069 4631 3425 4513 
z
" transform="scale(0.015625)"/>
       <path id="DejaVuSans-20" transform="scale(0.015625)"/>
       <path id="DejaVuSans-4c" d="M 628 4666 
L 1259 4666 
L 1259 531 
L 3531 531 
L 3531 0 
L 628 0 
L 628 4666 
z
" transform="scale(0.015625)"/>
      </defs>
      <use xlink:href="#DejaVuSans-4d"/>
      <use xlink:href="#DejaVuSans-53" x="86.279297"/>
      <use xlink:href="#DejaVuSans-45" x="149.755859"/>
      <use xlink:href="#DejaVuSans-20" x="212.939453"/>
      <use xlink:href="#DejaVuSans-4c" x="244.726562"/>
      <use xlink:href="#DejaVuSans-6f" x="298.689453"/>
      <use xlink:href="#DejaVuSans-73" x="359.871094"/>
      <use xlink:href="#DejaVuSans-73" x="411.970703"/>
     </g>
    </g>
   </g>
   <g id="line2d_15">
    <path d="M 115.363636 78.12 
L 120.647727 114.59786 
L 125.931818 141.429452 
L 131.215909 191.230858 
L 136.5 186.89589 
L 141.784091 205.813454 
L 147.068182 195.94711 
L 152.352273 215.443127 
L 157.636364 255.104363 
L 162.920455 240.915448 
L 168.204545 255.150103 
L 173.488636 253.753177 
L 178.772727 260.305277 
L 184.056818 264.343049 
L 189.340909 280.437461 
L 194.625 276.53922 
L 199.909091 258.771554 
L 205.193182 283.195352 
L 210.477273 297.19453 
L 215.761364 299.65072 
L 221.045455 316.613928 
L 226.329545 305.186254 
L 231.613636 297.981277 
L 236.897727 319.333009 
L 242.181818 308.712644 
L 247.465909 296.409168 
L 252.75 327.422029 
L 258.034091 321.325098 
L 263.318182 330.633819 
L 268.602273 324.892838 
L 273.886364 347.940194 
L 279.170455 341.69969 
L 284.454545 341.494975 
L 289.738636 323.96321 
L 295.022727 333.754437 
L 300.306818 315.319455 
L 305.590909 343.796465 
L 310.875 339.182358 
L 316.159091 347.217321 
L 321.443182 346.728424 
L 326.727273 340.854727 
L 332.011364 354.770432 
L 337.295455 344.489345 
L 342.579545 351.708838 
L 347.863636 361.494366 
L 353.147727 335.470236 
L 358.431818 354.172805 
L 363.715909 348.209245 
L 369 345.383398 
L 374.284091 349.646907 
L 379.568182 341.158161 
L 384.852273 348.13975 
L 390.136364 368.138486 
L 395.420455 359.770443 
L 400.704545 347.004752 
L 405.988636 357.976062 
L 411.272727 350.510658 
L 416.556818 360.799099 
L 421.840909 362.340946 
L 427.125 367.670572 
L 432.409091 354.214465 
L 437.693182 354.766004 
L 442.977273 363.688243 
L 448.261364 367.55626 
L 453.545455 347.449526 
L 458.829545 350.944883 
L 464.113636 380.881423 
L 469.397727 360.936243 
L 474.681818 376.790518 
L 479.965909 374.482406 
L 485.25 365.070462 
L 490.534091 368.929257 
L 495.818182 365.723723 
L 501.102273 353.567209 
L 506.386364 365.03658 
L 511.670455 363.761435 
L 516.954545 389.305505 
L 522.238636 365.077276 
L 527.522727 379.077474 
L 532.806818 368.421128 
L 538.090909 378.751343 
L 543.375 381.356363 
L 548.659091 369.083919 
L 553.943182 380.5957 
L 559.227273 376.215493 
L 564.511364 378.239364 
L 569.795455 366.213891 
L 575.079545 372.952706 
L 580.363636 378.400245 
L 585.647727 371.229919 
L 590.931818 372.193661 
L 596.215909 373.419888 
L 601.5 375.332702 
L 606.784091 356.139906 
L 612.068182 376.483408 
L 617.352273 366.294476 
L 622.636364 370.88731 
" clip-path="url(#pd1169a5632)" style="fill: none; stroke: #1f77b4; stroke-width: 1.5; stroke-linecap: square"/>
   </g>
   <g id="line2d_16">
    <path d="M 115.363636 150.645345 
L 120.647727 180.738857 
L 125.931818 203.094642 
L 131.215909 246.83373 
L 136.5 243.379493 
L 141.784091 261.042434 
L 147.068182 250.84301 
L 152.352273 264.628155 
L 157.636364 304.486598 
L 162.920455 292.817633 
L 168.204545 302.641086 
L 173.488636 300.488753 
L 178.772727 304.776633 
L 184.056818 308.803008 
L 189.340909 322.771999 
L 194.625 317.320014 
L 199.909091 301.998297 
L 205.193182 322.329228 
L 210.477273 334.367349 
L 215.761364 336.785076 
L 221.045455 350.666745 
L 226.329545 339.915704 
L 231.613636 332.839901 
L 236.897727 351.115485 
L 242.181818 343.156525 
L 247.465909 330.266472 
L 252.75 357.965705 
L 258.034091 350.88609 
L 263.318182 360.283096 
L 268.602273 355.044027 
L 273.886364 375.747175 
L 279.170455 369.384562 
L 284.454545 369.754295 
L 289.738636 350.759881 
L 295.022727 361.781436 
L 300.306818 344.91379 
L 305.590909 371.425394 
L 310.875 366.548973 
L 316.159091 374.044543 
L 321.443182 373.45479 
L 326.727273 368.32907 
L 332.011364 380.931321 
L 337.295455 370.985259 
L 342.579545 377.44971 
L 347.863636 388.011206 
L 353.147727 362.356578 
L 358.431818 368.854294 
L 363.715909 376.203826 
L 369 369.930114 
L 374.284091 381.027903 
L 379.568182 380.041523 
L 384.852273 378.920367 
L 390.136364 398.119361 
L 395.420455 384.969112 
L 400.704545 388.352275 
L 405.988636 373.467284 
L 411.272727 377.620427 
L 416.556818 389.902535 
L 421.840909 366.26995 
L 427.125 400.645047 
L 432.409091 377.307599 
L 437.693182 380.087263 
L 442.977273 393.563854 
L 448.261364 398.542324 
L 453.545455 379.811031 
L 458.829545 380.877034 
L 464.113636 379.300419 
L 469.397727 387.689811 
L 474.681818 387.663168 
L 479.965909 399.350767 
L 485.25 387.86307 
L 490.534091 379.294856 
L 495.818182 394.3378 
L 501.102273 385.45749 
L 506.386364 373.328004 
L 511.670455 396.611357 
L 516.954545 388.012264 
L 522.238636 380.88895 
L 527.522727 397.899746 
L 532.806818 396.102265 
L 538.090909 386.887662 
L 543.375 400.249806 
L 548.659091 403.727471 
L 553.943182 392.969904 
L 559.227273 403.682578 
L 564.511364 413.406947 
L 569.795455 393.715455 
L 575.079545 400.182062 
L 580.363636 399.473896 
L 585.647727 393.71946 
L 590.931818 405.02795 
L 596.215909 395.656336 
L 601.5 401.035977 
L 606.784091 410.201567 
L 612.068182 385.664649 
L 617.352273 401.166594 
L 622.636364 395.231314 
" clip-path="url(#pd1169a5632)" style="fill: none; stroke: #ff7f0e; stroke-width: 1.5; stroke-linecap: square"/>
   </g>
   <g id="line2d_17">
    <path d="M 115.363636 161.198294 
L 120.647727 203.817169 
L 125.931818 210.527435 
L 131.215909 253.488746 
L 136.5 240.649708 
L 141.784091 283.914838 
L 147.068182 305.726359 
L 152.352273 306.158158 
L 157.636364 296.501957 
L 162.920455 314.022557 
L 168.204545 320.217283 
L 173.488636 328.582899 
L 178.772727 332.743839 
L 184.056818 329.703574 
L 189.340909 333.626418 
L 194.625 340.285515 
L 199.909091 349.532864 
L 205.193182 339.959635 
L 210.477273 335.476589 
L 215.761364 342.87188 
L 221.045455 365.414553 
L 226.329545 351.418495 
L 231.613636 349.226889 
L 236.897727 349.934901 
L 242.181818 367.797783 
L 247.465909 365.473577 
L 252.75 357.599552 
L 258.034091 363.14475 
L 263.318182 368.817852 
L 268.602273 373.963632 
L 273.886364 368.995769 
L 279.170455 361.52563 
L 284.454545 382.112945 
L 289.738636 376.88171 
L 295.022727 374.702733 
L 300.306818 377.428168 
L 305.590909 370.951416 
L 310.875 371.800133 
L 316.159091 383.887401 
L 321.443182 382.440654 
L 326.727273 383.401353 
L 332.011364 381.128952 
L 337.295455 377.776976 
L 342.579545 394.744245 
L 347.863636 393.640473 
L 353.147727 378.834046 
L 358.431818 392.858422 
L 363.715909 380.025853 
L 369 390.32827 
L 374.284091 385.81061 
L 379.568182 371.107965 
L 384.852273 388.213283 
L 390.136364 384.522452 
L 395.420455 389.948833 
L 400.704545 386.939216 
L 405.988636 389.206959 
L 411.272727 389.70323 
L 416.556818 384.515329 
L 421.840909 375.069888 
L 427.125 391.614637 
L 432.409091 385.054644 
L 437.693182 389.462862 
L 442.977273 395.108974 
L 448.261364 404.616865 
L 453.545455 377.553549 
L 458.829545 392.072021 
L 464.113636 407.799144 
L 469.397727 393.874853 
L 474.681818 397.987068 
L 479.965909 388.028724 
L 485.25 393.794038 
L 490.534091 413.417323 
L 495.818182 391.258052 
L 501.102273 393.797638 
L 506.386364 393.776404 
L 511.670455 399.746432 
L 516.954545 395.812577 
L 522.238636 403.220652 
L 527.522727 400.621696 
L 532.806818 401.189137 
L 538.090909 402.167721 
L 543.375 400.986097 
L 548.659091 406.443608 
L 553.943182 403.756059 
L 559.227273 393.287025 
L 564.511364 408.755493 
L 569.795455 402.077973 
L 575.079545 388.558472 
L 580.363636 398.537164 
L 585.647727 402.357343 
L 590.931818 391.139774 
L 596.215909 411.099681 
L 601.5 389.87079 
L 606.784091 399.696072 
L 612.068182 408.921686 
L 617.352273 415.309383 
L 622.636364 398.855344 
" clip-path="url(#pd1169a5632)" style="fill: none; stroke: #2ca02c; stroke-width: 1.5; stroke-linecap: square"/>
   </g>
   <g id="line2d_18">
    <path d="M 115.363636 170.602307 
L 120.647727 203.461642 
L 125.931818 212.194529 
L 131.215909 250.926059 
L 136.5 238.448862 
L 141.784091 281.506582 
L 147.068182 302.434023 
L 152.352273 305.204312 
L 157.636364 297.321624 
L 162.920455 314.82178 
L 168.204545 321.05235 
L 173.488636 329.77488 
L 178.772727 335.594712 
L 184.056818 330.744897 
L 189.340909 337.157851 
L 194.625 343.036669 
L 199.909091 352.278666 
L 205.193182 342.087751 
L 210.477273 338.752523 
L 215.761364 346.142001 
L 221.045455 369.251826 
L 226.329545 355.170236 
L 231.613636 354.188745 
L 236.897727 355.560876 
L 242.181818 372.190118 
L 247.465909 368.962619 
L 252.75 363.751232 
L 258.034091 368.088972 
L 263.318182 374.01378 
L 268.602273 379.593534 
L 273.886364 374.335214 
L 279.170455 366.998637 
L 284.454545 386.557143 
L 289.738636 382.669779 
L 295.022727 379.960323 
L 300.306818 382.594161 
L 305.590909 376.120489 
L 310.875 376.45432 
L 316.159091 389.865072 
L 321.443182 387.049332 
L 326.727273 388.657306 
L 332.011364 386.299218 
L 337.295455 383.074665 
" clip-path="url(#pd1169a5632)" style="fill: none; stroke: #d62728; stroke-width: 4; stroke-linecap: square"/>
   </g>
   <g id="line2d_19">
    <path d="M 115.363636 166.744455 
L 120.647727 200.266793 
L 125.931818 244.887074 
L 131.215909 264.153619 
L 136.5 268.083817 
L 141.784091 287.102718 
L 147.068182 303.658999 
L 152.352273 309.838786 
L 157.636364 296.702899 
L 162.920455 343.508471 
L 168.204545 320.749571 
L 173.488636 330.388446 
L 178.772727 324.014648 
L 184.056818 332.767479 
L 189.340909 325.756128 
L 194.625 345.135908 
L 199.909091 357.026721 
L 205.193182 353.148809 
L 210.477273 356.782157 
L 215.761364 360.424976 
L 221.045455 372.681557 
L 226.329545 362.370631 
L 231.613636 360.890656 
L 236.897727 361.169372 
L 242.181818 363.668838 
L 247.465909 370.258074 
L 252.75 355.404674 
L 258.034091 374.638763 
L 263.318182 383.574689 
L 268.602273 358.671291 
L 273.886364 366.014143 
L 279.170455 392.144212 
L 284.454545 384.908222 
L 289.738636 387.827956 
L 295.022727 380.587365 
L 300.306818 401.119391 
L 305.590909 398.563654 
L 310.875 383.135401 
L 316.159091 386.297698 
L 321.443182 378.677112 
L 326.727273 394.112006 
L 332.011364 382.277945 
L 337.295455 408.529564 
L 342.579545 398.032 
L 347.863636 381.733547 
L 353.147727 393.511357 
L 358.431818 396.228147 
L 363.715909 391.80451 
L 369 392.576588 
L 374.284091 391.402011 
L 379.568182 375.053813 
L 384.852273 400.96623 
L 390.136364 399.307742 
L 395.420455 397.573 
L 400.704545 405.102798 
L 405.988636 397.4337 
L 411.272727 393.104931 
L 416.556818 399.379336 
L 421.840909 384.672205 
L 427.125 413.370851 
L 432.409091 401.979812 
L 437.693182 412.391844 
L 442.977273 403.351423 
L 448.261364 414.30766 
L 453.545455 410.285462 
L 458.829545 390.231918 
L 464.113636 407.85116 
L 469.397727 413.796432 
L 474.681818 399.364031 
L 479.965909 409.900386 
L 485.25 423.392088 
L 490.534091 412.40197 
L 495.818182 403.648427 
L 501.102273 415.896576 
L 506.386364 406.061053 
L 511.670455 413.136066 
L 516.954545 411.125824 
L 522.238636 410.102848 
L 527.522727 396.729327 
L 532.806818 406.962113 
L 538.090909 418.419433 
L 543.375 412.342253 
L 548.659091 406.842949 
L 553.943182 395.503657 
L 559.227273 416.609034 
L 564.511364 403.202267 
L 569.795455 413.235652 
L 575.079545 414.186187 
L 580.363636 412.31586 
L 585.647727 406.230827 
L 590.931818 405.266065 
L 596.215909 399.086471 
L 601.5 408.597154 
L 606.784091 413.235979 
L 612.068182 419.391509 
L 617.352273 421.180808 
L 622.636364 418.544949 
" clip-path="url(#pd1169a5632)" style="fill: none; stroke: #9467bd; stroke-width: 1.5; stroke-linecap: square"/>
   </g>
   <g id="line2d_20">
    <path d="M 115.363636 198.425401 
L 120.647727 231.496804 
L 125.931818 244.103945 
L 131.215909 273.578809 
L 136.5 277.585817 
L 141.784091 301.455766 
L 147.068182 327.895217 
L 152.352273 325.708232 
L 157.636364 332.139282 
L 162.920455 341.350093 
L 168.204545 331.82399 
L 173.488636 341.184072 
L 178.772727 352.49651 
L 184.056818 346.478777 
L 189.340909 344.022279 
L 194.625 361.999704 
L 199.909091 364.084043 
L 205.193182 377.744268 
L 210.477273 365.546846 
L 215.761364 361.947341 
L 221.045455 360.633464 
L 226.329545 382.09483 
L 231.613636 377.20297 
L 236.897727 401.915668 
L 242.181818 383.923324 
L 247.465909 380.103068 
L 252.75 387.732009 
L 258.034091 398.028073 
L 263.318182 392.209011 
L 268.602273 393.658723 
L 273.886364 373.35867 
L 279.170455 399.542122 
L 284.454545 383.914584 
L 289.738636 384.918598 
L 295.022727 390.550657 
L 300.306818 392.858364 
L 305.590909 388.409893 
L 310.875 403.040482 
L 316.159091 394.213766 
L 321.443182 400.311794 
L 326.727273 393.939748 
L 332.011364 402.821291 
L 337.295455 402.63831 
L 342.579545 406.337727 
L 347.863636 396.049903 
L 353.147727 399.701308 
L 358.431818 405.999527 
L 363.715909 409.056097 
L 369 393.193889 
L 374.284091 408.090738 
L 379.568182 391.453776 
L 384.852273 416.512048 
L 390.136364 405.468181 
L 395.420455 399.893818 
L 400.704545 396.927015 
L 405.988636 415.323013 
L 411.272727 408.889364 
L 416.556818 405.999719 
L 421.840909 410.840737 
L 427.125 400.107984 
L 432.409091 420.879473 
L 437.693182 424.060905 
L 442.977273 417.732559 
L 448.261364 418.778771 
L 453.545455 399.447215 
L 458.829545 410.017662 
L 464.113636 412.555804 
L 469.397727 414.330761 
L 474.681818 424.933204 
L 479.965909 414.833115 
L 485.25 422.813308 
L 490.534091 419.30925 
L 495.818182 420.29128 
L 501.102273 411.964704 
L 506.386364 421.641426 
L 511.670455 416.721268 
L 516.954545 416.795037 
L 522.238636 426.36971 
L 527.522727 425.663527 
L 532.806818 425.567022 
L 538.090909 420.770782 
L 543.375 421.743822 
L 548.659091 404.032599 
L 553.943182 406.704708 
L 559.227273 406.391129 
L 564.511364 421.795973 
L 569.795455 418.700169 
L 575.079545 426.28516 
L 580.363636 430.92 
L 585.647727 415.58421 
L 590.931818 425.429474 
L 596.215909 418.702037 
L 601.5 424.695705 
L 606.784091 422.41876 
L 612.068182 419.235442 
L 617.352273 425.229149 
L 622.636364 428.255495 
" clip-path="url(#pd1169a5632)" style="fill: none; stroke: #8c564b; stroke-width: 1.5; stroke-linecap: square"/>
   </g>
   <g id="patch_3">
    <path d="M 90 448.56 
L 90 60.48 
" style="fill: none; stroke: #000000; stroke-width: 0.8; stroke-linejoin: miter; stroke-linecap: square"/>
   </g>
   <g id="patch_4">
    <path d="M 648 448.56 
L 648 60.48 
" style="fill: none; stroke: #000000; stroke-width: 0.8; stroke-linejoin: miter; stroke-linecap: square"/>
   </g>
   <g id="patch_5">
    <path d="M 90 448.56 
L 648 448.56 
" style="fill: none; stroke: #000000; stroke-width: 0.8; stroke-linejoin: miter; stroke-linecap: square"/>
   </g>
   <g id="patch_6">
    <path d="M 90 60.48 
L 648 60.48 
" style="fill: none; stroke: #000000; stroke-width: 0.8; stroke-linejoin: miter; stroke-linecap: square"/>
   </g>
   <g id="text_17">
    <!-- MSE Loss per Epoch -->
    <g transform="translate(279.001406 54.48) scale(0.18 -0.18)">
     <defs>
      <path id="DejaVuSans-65" d="M 3597 1894 
L 3597 1613 
L 953 1613 
Q 991 1019 1311 708 
Q 1631 397 2203 397 
Q 2534 397 2845 478 
Q 3156 559 3463 722 
L 3463 178 
Q 3153 47 2828 -22 
Q 2503 -91 2169 -91 
Q 1331 -91 842 396 
Q 353 884 353 1716 
Q 353 2575 817 3079 
Q 1281 3584 2069 3584 
Q 2775 3584 3186 3129 
Q 3597 2675 3597 1894 
z
M 3022 2063 
Q 3016 2534 2758 2815 
Q 2500 3097 2075 3097 
Q 1594 3097 1305 2825 
Q 1016 2553 972 2059 
L 3022 2063 
z
" transform="scale(0.015625)"/>
      <path id="DejaVuSans-72" d="M 2631 2963 
Q 2534 3019 2420 3045 
Q 2306 3072 2169 3072 
Q 1681 3072 1420 2755 
Q 1159 2438 1159 1844 
L 1159 0 
L 581 0 
L 581 3500 
L 1159 3500 
L 1159 2956 
Q 1341 3275 1631 3429 
Q 1922 3584 2338 3584 
Q 2397 3584 2469 3576 
Q 2541 3569 2628 3553 
L 2631 2963 
z
" transform="scale(0.015625)"/>
     </defs>
     <use xlink:href="#DejaVuSans-4d"/>
     <use xlink:href="#DejaVuSans-53" x="86.279297"/>
     <use xlink:href="#DejaVuSans-45" x="149.755859"/>
     <use xlink:href="#DejaVuSans-20" x="212.939453"/>
     <use xlink:href="#DejaVuSans-4c" x="244.726562"/>
     <use xlink:href="#DejaVuSans-6f" x="298.689453"/>
     <use xlink:href="#DejaVuSans-73" x="359.871094"/>
     <use xlink:href="#DejaVuSans-73" x="411.970703"/>
     <use xlink:href="#DejaVuSans-20" x="464.070312"/>
     <use xlink:href="#DejaVuSans-70" x="495.857422"/>
     <use xlink:href="#DejaVuSans-65" x="559.333984"/>
     <use xlink:href="#DejaVuSans-72" x="620.857422"/>
     <use xlink:href="#DejaVuSans-20" x="661.970703"/>
     <use xlink:href="#DejaVuSans-45" x="693.757812"/>
     <use xlink:href="#DejaVuSans-70" x="756.941406"/>
     <use xlink:href="#DejaVuSans-6f" x="820.417969"/>
     <use xlink:href="#DejaVuSans-63" x="881.599609"/>
     <use xlink:href="#DejaVuSans-68" x="936.580078"/>
    </g>
   </g>
   <g id="legend_1">
    <g id="patch_7">
     <path d="M 359.18 217.65625 
L 638.2 217.65625 
Q 641 217.65625 641 214.85625 
L 641 70.28 
Q 641 67.48 638.2 67.48 
L 359.18 67.48 
Q 356.38 67.48 356.38 70.28 
L 356.38 214.85625 
Q 356.38 217.65625 359.18 217.65625 
z
" style="fill: #ffffff; opacity: 0.8; stroke: #cccccc; stroke-linejoin: miter"/>
    </g>
    <g id="text_18">
     <!-- Dropout at $96^3/48^3/24^3/12^3$ resolutions -->
     <g transform="translate(361.98 85.82) scale(0.14 -0.14)">
      <defs>
       <path id="DejaVuSans-44" d="M 1259 4147 
L 1259 519 
L 2022 519 
Q 2988 519 3436 956 
Q 3884 1394 3884 2338 
Q 3884 3275 3436 3711 
Q 2988 4147 2022 4147 
L 1259 4147 
z
M 628 4666 
L 1925 4666 
Q 3281 4666 3915 4102 
Q 4550 3538 4550 2338 
Q 4550 1131 3912 565 
Q 3275 0 1925 0 
L 628 0 
L 628 4666 
z
" transform="scale(0.015625)"/>
       <path id="DejaVuSans-75" d="M 544 1381 
L 544 3500 
L 1119 3500 
L 1119 1403 
Q 1119 906 1312 657 
Q 1506 409 1894 409 
Q 2359 409 2629 706 
Q 2900 1003 2900 1516 
L 2900 3500 
L 3475 3500 
L 3475 0 
L 2900 0 
L 2900 538 
Q 2691 219 2414 64 
Q 2138 -91 1772 -91 
Q 1169 -91 856 284 
Q 544 659 544 1381 
z
M 1991 3584 
L 1991 3584 
z
" transform="scale(0.015625)"/>
       <path id="DejaVuSans-74" d="M 1172 4494 
L 1172 3500 
L 2356 3500 
L 2356 3053 
L 1172 3053 
L 1172 1153 
Q 1172 725 1289 603 
Q 1406 481 1766 481 
L 2356 481 
L 2356 0 
L 1766 0 
Q 1100 0 847 248 
Q 594 497 594 1153 
L 594 3053 
L 172 3053 
L 172 3500 
L 594 3500 
L 594 4494 
L 1172 4494 
z
" transform="scale(0.015625)"/>
       <path id="DejaVuSans-61" d="M 2194 1759 
Q 1497 1759 1228 1600 
Q 959 1441 959 1056 
Q 959 750 1161 570 
Q 1363 391 1709 391 
Q 2188 391 2477 730 
Q 2766 1069 2766 1631 
L 2766 1759 
L 2194 1759 
z
M 3341 1997 
L 3341 0 
L 2766 0 
L 2766 531 
Q 2569 213 2275 61 
Q 1981 -91 1556 -91 
Q 1019 -91 701 211 
Q 384 513 384 1019 
Q 384 1609 779 1909 
Q 1175 2209 1959 2209 
L 2766 2209 
L 2766 2266 
Q 2766 2663 2505 2880 
Q 2244 3097 1772 3097 
Q 1472 3097 1187 3025 
Q 903 2953 641 2809 
L 641 3341 
Q 956 3463 1253 3523 
Q 1550 3584 1831 3584 
Q 2591 3584 2966 3190 
Q 3341 2797 3341 1997 
z
" transform="scale(0.015625)"/>
       <path id="DejaVuSans-39" d="M 703 97 
L 703 672 
Q 941 559 1184 500 
Q 1428 441 1663 441 
Q 2288 441 2617 861 
Q 2947 1281 2994 2138 
Q 2813 1869 2534 1725 
Q 2256 1581 1919 1581 
Q 1219 1581 811 2004 
Q 403 2428 403 3163 
Q 403 3881 828 4315 
Q 1253 4750 1959 4750 
Q 2769 4750 3195 4129 
Q 3622 3509 3622 2328 
Q 3622 1225 3098 567 
Q 2575 -91 1691 -91 
Q 1453 -91 1209 -44 
Q 966 3 703 97 
z
M 1959 2075 
Q 2384 2075 2632 2365 
Q 2881 2656 2881 3163 
Q 2881 3666 2632 3958 
Q 2384 4250 1959 4250 
Q 1534 4250 1286 3958 
Q 1038 3666 1038 3163 
Q 1038 2656 1286 2365 
Q 1534 2075 1959 2075 
z
" transform="scale(0.015625)"/>
       <path id="DejaVuSans-2f" d="M 1625 4666 
L 2156 4666 
L 531 -594 
L 0 -594 
L 1625 4666 
z
" transform="scale(0.015625)"/>
       <path id="DejaVuSans-6c" d="M 603 4863 
L 1178 4863 
L 1178 0 
L 603 0 
L 603 4863 
z
" transform="scale(0.015625)"/>
       <path id="DejaVuSans-69" d="M 603 3500 
L 1178 3500 
L 1178 0 
L 603 0 
L 603 3500 
z
M 603 4863 
L 1178 4863 
L 1178 4134 
L 603 4134 
L 603 4863 
z
" transform="scale(0.015625)"/>
       <path id="DejaVuSans-6e" d="M 3513 2113 
L 3513 0 
L 2938 0 
L 2938 2094 
Q 2938 2591 2744 2837 
Q 2550 3084 2163 3084 
Q 1697 3084 1428 2787 
Q 1159 2491 1159 1978 
L 1159 0 
L 581 0 
L 581 3500 
L 1159 3500 
L 1159 2956 
Q 1366 3272 1645 3428 
Q 1925 3584 2291 3584 
Q 2894 3584 3203 3211 
Q 3513 2838 3513 2113 
z
" transform="scale(0.015625)"/>
      </defs>
      <use xlink:href="#DejaVuSans-44" transform="translate(0 0.765625)"/>
      <use xlink:href="#DejaVuSans-72" transform="translate(77.001953 0.765625)"/>
      <use xlink:href="#DejaVuSans-6f" transform="translate(118.115234 0.765625)"/>
      <use xlink:href="#DejaVuSans-70" transform="translate(179.296875 0.765625)"/>
      <use xlink:href="#DejaVuSans-6f" transform="translate(242.773438 0.765625)"/>
      <use xlink:href="#DejaVuSans-75" transform="translate(303.955078 0.765625)"/>
      <use xlink:href="#DejaVuSans-74" transform="translate(367.333984 0.765625)"/>
      <use xlink:href="#DejaVuSans-20" transform="translate(406.542969 0.765625)"/>
      <use xlink:href="#DejaVuSans-61" transform="translate(438.330078 0.765625)"/>
      <use xlink:href="#DejaVuSans-74" transform="translate(499.609375 0.765625)"/>
      <use xlink:href="#DejaVuSans-20" transform="translate(538.818359 0.765625)"/>
      <use xlink:href="#DejaVuSans-39" transform="translate(570.605469 0.765625)"/>
      <use xlink:href="#DejaVuSans-36" transform="translate(634.228516 0.765625)"/>
      <use xlink:href="#DejaVuSans-33" transform="translate(698.808594 39.046875) scale(0.7)"/>
      <use xlink:href="#DejaVuSans-2f" transform="translate(746.079102 0.765625)"/>
      <use xlink:href="#DejaVuSans-34" transform="translate(779.770508 0.765625)"/>
      <use xlink:href="#DejaVuSans-38" transform="translate(843.393555 0.765625)"/>
      <use xlink:href="#DejaVuSans-33" transform="translate(907.973633 39.046875) scale(0.7)"/>
      <use xlink:href="#DejaVuSans-2f" transform="translate(955.244141 0.765625)"/>
      <use xlink:href="#DejaVuSans-32" transform="translate(985.310547 0.765625)"/>
      <use xlink:href="#DejaVuSans-34" transform="translate(1048.933594 0.765625)"/>
      <use xlink:href="#DejaVuSans-33" transform="translate(1113.513672 39.046875) scale(0.7)"/>
      <use xlink:href="#DejaVuSans-2f" transform="translate(1160.78418 0.765625)"/>
      <use xlink:href="#DejaVuSans-31" transform="translate(1194.475586 0.765625)"/>
      <use xlink:href="#DejaVuSans-32" transform="translate(1258.098633 0.765625)"/>
      <use xlink:href="#DejaVuSans-33" transform="translate(1322.678711 39.046875) scale(0.7)"/>
      <use xlink:href="#DejaVuSans-20" transform="translate(1369.949219 0.765625)"/>
      <use xlink:href="#DejaVuSans-72" transform="translate(1401.736328 0.765625)"/>
      <use xlink:href="#DejaVuSans-65" transform="translate(1442.849609 0.765625)"/>
      <use xlink:href="#DejaVuSans-73" transform="translate(1504.373047 0.765625)"/>
      <use xlink:href="#DejaVuSans-6f" transform="translate(1556.472656 0.765625)"/>
      <use xlink:href="#DejaVuSans-6c" transform="translate(1617.654297 0.765625)"/>
      <use xlink:href="#DejaVuSans-75" transform="translate(1645.4375 0.765625)"/>
      <use xlink:href="#DejaVuSans-74" transform="translate(1708.816406 0.765625)"/>
      <use xlink:href="#DejaVuSans-69" transform="translate(1748.025391 0.765625)"/>
      <use xlink:href="#DejaVuSans-6f" transform="translate(1775.808594 0.765625)"/>
      <use xlink:href="#DejaVuSans-6e" transform="translate(1836.990234 0.765625)"/>
      <use xlink:href="#DejaVuSans-73" transform="translate(1900.369141 0.765625)"/>
     </g>
    </g>
    <g id="line2d_21">
     <path d="M 427.486875 101.497813 
L 441.486875 101.497813 
L 455.486875 101.497813 
" style="fill: none; stroke: #1f77b4; stroke-width: 1.5; stroke-linecap: square"/>
    </g>
    <g id="text_19">
     <!-- 0.3/0.3/0.3/0.3 -->
     <g transform="translate(466.686875 106.397813) scale(0.14 -0.14)">
      <use xlink:href="#DejaVuSans-30"/>
      <use xlink:href="#DejaVuSans-2e" x="63.623047"/>
      <use xlink:href="#DejaVuSans-33" x="95.410156"/>
      <use xlink:href="#DejaVuSans-2f" x="159.033203"/>
      <use xlink:href="#DejaVuSans-30" x="192.724609"/>
      <use xlink:href="#DejaVuSans-2e" x="256.347656"/>
      <use xlink:href="#DejaVuSans-33" x="288.134766"/>
      <use xlink:href="#DejaVuSans-2f" x="351.757812"/>
      <use xlink:href="#DejaVuSans-30" x="385.449219"/>
      <use xlink:href="#DejaVuSans-2e" x="449.072266"/>
      <use xlink:href="#DejaVuSans-33" x="480.859375"/>
      <use xlink:href="#DejaVuSans-2f" x="544.482422"/>
      <use xlink:href="#DejaVuSans-30" x="578.173828"/>
      <use xlink:href="#DejaVuSans-2e" x="641.796875"/>
      <use xlink:href="#DejaVuSans-33" x="673.583984"/>
     </g>
    </g>
    <g id="line2d_22">
     <path d="M 427.486875 122.047188 
L 441.486875 122.047188 
L 455.486875 122.047188 
" style="fill: none; stroke: #ff7f0e; stroke-width: 1.5; stroke-linecap: square"/>
    </g>
    <g id="text_20">
     <!-- 0.1/0.1/0.1/0.1 -->
     <g transform="translate(466.686875 126.947188) scale(0.14 -0.14)">
      <use xlink:href="#DejaVuSans-30"/>
      <use xlink:href="#DejaVuSans-2e" x="63.623047"/>
      <use xlink:href="#DejaVuSans-31" x="95.410156"/>
      <use xlink:href="#DejaVuSans-2f" x="159.033203"/>
      <use xlink:href="#DejaVuSans-30" x="192.724609"/>
      <use xlink:href="#DejaVuSans-2e" x="256.347656"/>
      <use xlink:href="#DejaVuSans-31" x="288.134766"/>
      <use xlink:href="#DejaVuSans-2f" x="351.757812"/>
      <use xlink:href="#DejaVuSans-30" x="385.449219"/>
      <use xlink:href="#DejaVuSans-2e" x="449.072266"/>
      <use xlink:href="#DejaVuSans-31" x="480.859375"/>
      <use xlink:href="#DejaVuSans-2f" x="544.482422"/>
      <use xlink:href="#DejaVuSans-30" x="578.173828"/>
      <use xlink:href="#DejaVuSans-2e" x="641.796875"/>
      <use xlink:href="#DejaVuSans-31" x="673.583984"/>
     </g>
    </g>
    <g id="line2d_23">
     <path d="M 427.486875 142.596563 
L 441.486875 142.596563 
L 455.486875 142.596563 
" style="fill: none; stroke: #2ca02c; stroke-width: 1.5; stroke-linecap: square"/>
    </g>
    <g id="text_21">
     <!-- 0.0/0.1/0.3/0.3 -->
     <g transform="translate(466.686875 147.496563) scale(0.14 -0.14)">
      <use xlink:href="#DejaVuSans-30"/>
      <use xlink:href="#DejaVuSans-2e" x="63.623047"/>
      <use xlink:href="#DejaVuSans-30" x="95.410156"/>
      <use xlink:href="#DejaVuSans-2f" x="159.033203"/>
      <use xlink:href="#DejaVuSans-30" x="192.724609"/>
      <use xlink:href="#DejaVuSans-2e" x="256.347656"/>
      <use xlink:href="#DejaVuSans-31" x="288.134766"/>
      <use xlink:href="#DejaVuSans-2f" x="351.757812"/>
      <use xlink:href="#DejaVuSans-30" x="385.449219"/>
      <use xlink:href="#DejaVuSans-2e" x="449.072266"/>
      <use xlink:href="#DejaVuSans-33" x="480.859375"/>
      <use xlink:href="#DejaVuSans-2f" x="544.482422"/>
      <use xlink:href="#DejaVuSans-30" x="578.173828"/>
      <use xlink:href="#DejaVuSans-2e" x="641.796875"/>
      <use xlink:href="#DejaVuSans-33" x="673.583984"/>
     </g>
    </g>
    <g id="line2d_24">
     <path d="M 427.486875 163.145938 
L 441.486875 163.145938 
L 455.486875 163.145938 
" style="fill: none; stroke: #d62728; stroke-width: 4; stroke-linecap: square"/>
    </g>
    <g id="text_22">
     <!-- 0.0/0.1/0.1/0.1 -->
     <g transform="translate(466.686875 168.045938) scale(0.14 -0.14)">
      <use xlink:href="#DejaVuSans-30"/>
      <use xlink:href="#DejaVuSans-2e" x="63.623047"/>
      <use xlink:href="#DejaVuSans-30" x="95.410156"/>
      <use xlink:href="#DejaVuSans-2f" x="159.033203"/>
      <use xlink:href="#DejaVuSans-30" x="192.724609"/>
      <use xlink:href="#DejaVuSans-2e" x="256.347656"/>
      <use xlink:href="#DejaVuSans-31" x="288.134766"/>
      <use xlink:href="#DejaVuSans-2f" x="351.757812"/>
      <use xlink:href="#DejaVuSans-30" x="385.449219"/>
      <use xlink:href="#DejaVuSans-2e" x="449.072266"/>
      <use xlink:href="#DejaVuSans-31" x="480.859375"/>
      <use xlink:href="#DejaVuSans-2f" x="544.482422"/>
      <use xlink:href="#DejaVuSans-30" x="578.173828"/>
      <use xlink:href="#DejaVuSans-2e" x="641.796875"/>
      <use xlink:href="#DejaVuSans-31" x="673.583984"/>
     </g>
    </g>
    <g id="line2d_25">
     <path d="M 427.486875 183.695313 
L 441.486875 183.695313 
L 455.486875 183.695313 
" style="fill: none; stroke: #9467bd; stroke-width: 1.5; stroke-linecap: square"/>
    </g>
    <g id="text_23">
     <!-- 0.0/0.0/0.3/0.3 -->
     <g transform="translate(466.686875 188.595313) scale(0.14 -0.14)">
      <use xlink:href="#DejaVuSans-30"/>
      <use xlink:href="#DejaVuSans-2e" x="63.623047"/>
      <use xlink:href="#DejaVuSans-30" x="95.410156"/>
      <use xlink:href="#DejaVuSans-2f" x="159.033203"/>
      <use xlink:href="#DejaVuSans-30" x="192.724609"/>
      <use xlink:href="#DejaVuSans-2e" x="256.347656"/>
      <use xlink:href="#DejaVuSans-30" x="288.134766"/>
      <use xlink:href="#DejaVuSans-2f" x="351.757812"/>
      <use xlink:href="#DejaVuSans-30" x="385.449219"/>
      <use xlink:href="#DejaVuSans-2e" x="449.072266"/>
      <use xlink:href="#DejaVuSans-33" x="480.859375"/>
      <use xlink:href="#DejaVuSans-2f" x="544.482422"/>
      <use xlink:href="#DejaVuSans-30" x="578.173828"/>
      <use xlink:href="#DejaVuSans-2e" x="641.796875"/>
      <use xlink:href="#DejaVuSans-33" x="673.583984"/>
     </g>
    </g>
    <g id="line2d_26">
     <path d="M 427.486875 204.244688 
L 441.486875 204.244688 
L 455.486875 204.244688 
" style="fill: none; stroke: #8c564b; stroke-width: 1.5; stroke-linecap: square"/>
    </g>
    <g id="text_24">
     <!-- No Dropout -->
     <g transform="translate(466.686875 209.144688) scale(0.14 -0.14)">
      <defs>
       <path id="DejaVuSans-4e" d="M 628 4666 
L 1478 4666 
L 3547 763 
L 3547 4666 
L 4159 4666 
L 4159 0 
L 3309 0 
L 1241 3903 
L 1241 0 
L 628 0 
L 628 4666 
z
" transform="scale(0.015625)"/>
      </defs>
      <use xlink:href="#DejaVuSans-4e"/>
      <use xlink:href="#DejaVuSans-6f" x="74.804688"/>
      <use xlink:href="#DejaVuSans-20" x="135.986328"/>
      <use xlink:href="#DejaVuSans-44" x="167.773438"/>
      <use xlink:href="#DejaVuSans-72" x="244.775391"/>
      <use xlink:href="#DejaVuSans-6f" x="283.638672"/>
      <use xlink:href="#DejaVuSans-70" x="344.820312"/>
      <use xlink:href="#DejaVuSans-6f" x="408.296875"/>
      <use xlink:href="#DejaVuSans-75" x="469.478516"/>
      <use xlink:href="#DejaVuSans-74" x="532.857422"/>
     </g>
    </g>
   </g>
  </g>
 </g>
 <defs>
  <clipPath id="pd1169a5632">
   <rect x="90" y="60.48" width="558" height="388.08"/>
  </clipPath>
 </defs>
</svg>
